%TF.GenerationSoftware,KiCad,Pcbnew,5.1.9-73d0e3b20d~88~ubuntu20.10.1*%
%TF.CreationDate,2021-02-22T22:34:40+01:00*%
%TF.ProjectId,vca-adsr-panel,7663612d-6164-4737-922d-70616e656c2e,rev?*%
%TF.SameCoordinates,Original*%
%TF.FileFunction,Legend,Bot*%
%TF.FilePolarity,Positive*%
%FSLAX46Y46*%
G04 Gerber Fmt 4.6, Leading zero omitted, Abs format (unit mm)*
G04 Created by KiCad (PCBNEW 5.1.9-73d0e3b20d~88~ubuntu20.10.1) date 2021-02-22 22:34:40*
%MOMM*%
%LPD*%
G01*
G04 APERTURE LIST*
%ADD10C,0.150000*%
G04 APERTURE END LIST*
D10*
X69919047Y-234452380D02*
X69919047Y-235166666D01*
X69966666Y-235309523D01*
X70061904Y-235404761D01*
X70204761Y-235452380D01*
X70300000Y-235452380D01*
X68966666Y-235452380D02*
X69442857Y-235452380D01*
X69442857Y-234452380D01*
X68061904Y-235357142D02*
X68109523Y-235404761D01*
X68252380Y-235452380D01*
X68347619Y-235452380D01*
X68490476Y-235404761D01*
X68585714Y-235309523D01*
X68633333Y-235214285D01*
X68680952Y-235023809D01*
X68680952Y-234880952D01*
X68633333Y-234690476D01*
X68585714Y-234595238D01*
X68490476Y-234500000D01*
X68347619Y-234452380D01*
X68252380Y-234452380D01*
X68109523Y-234500000D01*
X68061904Y-234547619D01*
X67347619Y-234452380D02*
X67347619Y-235166666D01*
X67395238Y-235309523D01*
X67490476Y-235404761D01*
X67633333Y-235452380D01*
X67728571Y-235452380D01*
X66395238Y-235452380D02*
X66871428Y-235452380D01*
X66871428Y-234452380D01*
X65490476Y-235357142D02*
X65538095Y-235404761D01*
X65680952Y-235452380D01*
X65776190Y-235452380D01*
X65919047Y-235404761D01*
X66014285Y-235309523D01*
X66061904Y-235214285D01*
X66109523Y-235023809D01*
X66109523Y-234880952D01*
X66061904Y-234690476D01*
X66014285Y-234595238D01*
X65919047Y-234500000D01*
X65776190Y-234452380D01*
X65680952Y-234452380D01*
X65538095Y-234500000D01*
X65490476Y-234547619D01*
X64776190Y-234452380D02*
X64776190Y-235166666D01*
X64823809Y-235309523D01*
X64919047Y-235404761D01*
X65061904Y-235452380D01*
X65157142Y-235452380D01*
X63823809Y-235452380D02*
X64300000Y-235452380D01*
X64300000Y-234452380D01*
X62919047Y-235357142D02*
X62966666Y-235404761D01*
X63109523Y-235452380D01*
X63204761Y-235452380D01*
X63347619Y-235404761D01*
X63442857Y-235309523D01*
X63490476Y-235214285D01*
X63538095Y-235023809D01*
X63538095Y-234880952D01*
X63490476Y-234690476D01*
X63442857Y-234595238D01*
X63347619Y-234500000D01*
X63204761Y-234452380D01*
X63109523Y-234452380D01*
X62966666Y-234500000D01*
X62919047Y-234547619D01*
X62204761Y-234452380D02*
X62204761Y-235166666D01*
X62252380Y-235309523D01*
X62347619Y-235404761D01*
X62490476Y-235452380D01*
X62585714Y-235452380D01*
X61252380Y-235452380D02*
X61728571Y-235452380D01*
X61728571Y-234452380D01*
X60347619Y-235357142D02*
X60395238Y-235404761D01*
X60538095Y-235452380D01*
X60633333Y-235452380D01*
X60776190Y-235404761D01*
X60871428Y-235309523D01*
X60919047Y-235214285D01*
X60966666Y-235023809D01*
X60966666Y-234880952D01*
X60919047Y-234690476D01*
X60871428Y-234595238D01*
X60776190Y-234500000D01*
X60633333Y-234452380D01*
X60538095Y-234452380D01*
X60395238Y-234500000D01*
X60347619Y-234547619D01*
X74023809Y-49702380D02*
X74023809Y-48702380D01*
X73642857Y-48702380D01*
X73547619Y-48750000D01*
X73500000Y-48797619D01*
X73452380Y-48892857D01*
X73452380Y-49035714D01*
X73500000Y-49130952D01*
X73547619Y-49178571D01*
X73642857Y-49226190D01*
X74023809Y-49226190D01*
X72880952Y-49702380D02*
X72976190Y-49654761D01*
X73023809Y-49607142D01*
X73071428Y-49511904D01*
X73071428Y-49226190D01*
X73023809Y-49130952D01*
X72976190Y-49083333D01*
X72880952Y-49035714D01*
X72738095Y-49035714D01*
X72642857Y-49083333D01*
X72595238Y-49130952D01*
X72547619Y-49226190D01*
X72547619Y-49511904D01*
X72595238Y-49607142D01*
X72642857Y-49654761D01*
X72738095Y-49702380D01*
X72880952Y-49702380D01*
X71976190Y-49702380D02*
X72071428Y-49654761D01*
X72119047Y-49559523D01*
X72119047Y-48702380D01*
X71690476Y-49035714D02*
X71452380Y-49702380D01*
X71214285Y-49035714D02*
X71452380Y-49702380D01*
X71547619Y-49940476D01*
X71595238Y-49988095D01*
X71690476Y-50035714D01*
X70833333Y-49702380D02*
X70833333Y-48702380D01*
X70738095Y-49321428D02*
X70452380Y-49702380D01*
X70452380Y-49035714D02*
X70833333Y-49416666D01*
X70023809Y-49702380D02*
X70023809Y-49035714D01*
X70023809Y-48702380D02*
X70071428Y-48750000D01*
X70023809Y-48797619D01*
X69976190Y-48750000D01*
X70023809Y-48702380D01*
X70023809Y-48797619D01*
X69690476Y-49035714D02*
X69309523Y-49035714D01*
X69547619Y-48702380D02*
X69547619Y-49559523D01*
X69500000Y-49654761D01*
X69404761Y-49702380D01*
X69309523Y-49702380D01*
X68357142Y-48702380D02*
X68023809Y-49702380D01*
X67690476Y-48702380D01*
X66785714Y-49607142D02*
X66833333Y-49654761D01*
X66976190Y-49702380D01*
X67071428Y-49702380D01*
X67214285Y-49654761D01*
X67309523Y-49559523D01*
X67357142Y-49464285D01*
X67404761Y-49273809D01*
X67404761Y-49130952D01*
X67357142Y-48940476D01*
X67309523Y-48845238D01*
X67214285Y-48750000D01*
X67071428Y-48702380D01*
X66976190Y-48702380D01*
X66833333Y-48750000D01*
X66785714Y-48797619D01*
X66404761Y-49416666D02*
X65928571Y-49416666D01*
X66500000Y-49702380D02*
X66166666Y-48702380D01*
X65833333Y-49702380D01*
X65500000Y-49321428D02*
X64738095Y-49321428D01*
X64309523Y-49416666D02*
X63833333Y-49416666D01*
X64404761Y-49702380D02*
X64071428Y-48702380D01*
X63738095Y-49702380D01*
X63404761Y-49702380D02*
X63404761Y-48702380D01*
X63166666Y-48702380D01*
X63023809Y-48750000D01*
X62928571Y-48845238D01*
X62880952Y-48940476D01*
X62833333Y-49130952D01*
X62833333Y-49273809D01*
X62880952Y-49464285D01*
X62928571Y-49559523D01*
X63023809Y-49654761D01*
X63166666Y-49702380D01*
X63404761Y-49702380D01*
X62452380Y-49654761D02*
X62309523Y-49702380D01*
X62071428Y-49702380D01*
X61976190Y-49654761D01*
X61928571Y-49607142D01*
X61880952Y-49511904D01*
X61880952Y-49416666D01*
X61928571Y-49321428D01*
X61976190Y-49273809D01*
X62071428Y-49226190D01*
X62261904Y-49178571D01*
X62357142Y-49130952D01*
X62404761Y-49083333D01*
X62452380Y-48988095D01*
X62452380Y-48892857D01*
X62404761Y-48797619D01*
X62357142Y-48750000D01*
X62261904Y-48702380D01*
X62023809Y-48702380D01*
X61880952Y-48750000D01*
X60880952Y-49702380D02*
X61214285Y-49226190D01*
X61452380Y-49702380D02*
X61452380Y-48702380D01*
X61071428Y-48702380D01*
X60976190Y-48750000D01*
X60928571Y-48797619D01*
X60880952Y-48892857D01*
X60880952Y-49035714D01*
X60928571Y-49130952D01*
X60976190Y-49178571D01*
X61071428Y-49226190D01*
X61452380Y-49226190D01*
X59690476Y-49702380D02*
X59690476Y-48702380D01*
X59309523Y-48702380D01*
X59214285Y-48750000D01*
X59166666Y-48797619D01*
X59119047Y-48892857D01*
X59119047Y-49035714D01*
X59166666Y-49130952D01*
X59214285Y-49178571D01*
X59309523Y-49226190D01*
X59690476Y-49226190D01*
X58261904Y-49702380D02*
X58261904Y-49178571D01*
X58309523Y-49083333D01*
X58404761Y-49035714D01*
X58595238Y-49035714D01*
X58690476Y-49083333D01*
X58261904Y-49654761D02*
X58357142Y-49702380D01*
X58595238Y-49702380D01*
X58690476Y-49654761D01*
X58738095Y-49559523D01*
X58738095Y-49464285D01*
X58690476Y-49369047D01*
X58595238Y-49321428D01*
X58357142Y-49321428D01*
X58261904Y-49273809D01*
X57785714Y-49035714D02*
X57785714Y-49702380D01*
X57785714Y-49130952D02*
X57738095Y-49083333D01*
X57642857Y-49035714D01*
X57500000Y-49035714D01*
X57404761Y-49083333D01*
X57357142Y-49178571D01*
X57357142Y-49702380D01*
X56500000Y-49654761D02*
X56595238Y-49702380D01*
X56785714Y-49702380D01*
X56880952Y-49654761D01*
X56928571Y-49559523D01*
X56928571Y-49178571D01*
X56880952Y-49083333D01*
X56785714Y-49035714D01*
X56595238Y-49035714D01*
X56500000Y-49083333D01*
X56452380Y-49178571D01*
X56452380Y-49273809D01*
X56928571Y-49369047D01*
X55880952Y-49702380D02*
X55976190Y-49654761D01*
X56023809Y-49559523D01*
X56023809Y-48702380D01*
X71261904Y-50352380D02*
X71261904Y-51066666D01*
X71309523Y-51209523D01*
X71404761Y-51304761D01*
X71547619Y-51352380D01*
X71642857Y-51352380D01*
X70357142Y-51352380D02*
X70357142Y-50828571D01*
X70404761Y-50733333D01*
X70500000Y-50685714D01*
X70690476Y-50685714D01*
X70785714Y-50733333D01*
X70357142Y-51304761D02*
X70452380Y-51352380D01*
X70690476Y-51352380D01*
X70785714Y-51304761D01*
X70833333Y-51209523D01*
X70833333Y-51114285D01*
X70785714Y-51019047D01*
X70690476Y-50971428D01*
X70452380Y-50971428D01*
X70357142Y-50923809D01*
X69880952Y-50685714D02*
X69880952Y-51352380D01*
X69880952Y-50780952D02*
X69833333Y-50733333D01*
X69738095Y-50685714D01*
X69595238Y-50685714D01*
X69500000Y-50733333D01*
X69452380Y-50828571D01*
X69452380Y-51352380D01*
X68214285Y-51352380D02*
X68214285Y-50352380D01*
X67642857Y-51352380D02*
X68071428Y-50780952D01*
X67642857Y-50352380D02*
X68214285Y-50923809D01*
X67214285Y-50685714D02*
X67214285Y-51352380D01*
X67214285Y-50780952D02*
X67166666Y-50733333D01*
X67071428Y-50685714D01*
X66928571Y-50685714D01*
X66833333Y-50733333D01*
X66785714Y-50828571D01*
X66785714Y-51352380D01*
X66309523Y-51352380D02*
X66309523Y-50685714D01*
X66309523Y-50352380D02*
X66357142Y-50400000D01*
X66309523Y-50447619D01*
X66261904Y-50400000D01*
X66309523Y-50352380D01*
X66309523Y-50447619D01*
X65833333Y-50685714D02*
X65833333Y-51685714D01*
X65833333Y-50733333D02*
X65738095Y-50685714D01*
X65547619Y-50685714D01*
X65452380Y-50733333D01*
X65404761Y-50780952D01*
X65357142Y-50876190D01*
X65357142Y-51161904D01*
X65404761Y-51257142D01*
X65452380Y-51304761D01*
X65547619Y-51352380D01*
X65738095Y-51352380D01*
X65833333Y-51304761D01*
X64928571Y-50685714D02*
X64928571Y-51685714D01*
X64928571Y-50733333D02*
X64833333Y-50685714D01*
X64642857Y-50685714D01*
X64547619Y-50733333D01*
X64500000Y-50780952D01*
X64452380Y-50876190D01*
X64452380Y-51161904D01*
X64500000Y-51257142D01*
X64547619Y-51304761D01*
X64642857Y-51352380D01*
X64833333Y-51352380D01*
X64928571Y-51304761D01*
X63642857Y-51304761D02*
X63738095Y-51352380D01*
X63928571Y-51352380D01*
X64023809Y-51304761D01*
X64071428Y-51209523D01*
X64071428Y-50828571D01*
X64023809Y-50733333D01*
X63928571Y-50685714D01*
X63738095Y-50685714D01*
X63642857Y-50733333D01*
X63595238Y-50828571D01*
X63595238Y-50923809D01*
X64071428Y-51019047D01*
X63166666Y-51352380D02*
X63166666Y-50685714D01*
X63166666Y-50876190D02*
X63119047Y-50780952D01*
X63071428Y-50733333D01*
X62976190Y-50685714D01*
X62880952Y-50685714D01*
X61833333Y-50447619D02*
X61785714Y-50400000D01*
X61690476Y-50352380D01*
X61452380Y-50352380D01*
X61357142Y-50400000D01*
X61309523Y-50447619D01*
X61261904Y-50542857D01*
X61261904Y-50638095D01*
X61309523Y-50780952D01*
X61880952Y-51352380D01*
X61261904Y-51352380D01*
X60642857Y-50352380D02*
X60547619Y-50352380D01*
X60452380Y-50400000D01*
X60404761Y-50447619D01*
X60357142Y-50542857D01*
X60309523Y-50733333D01*
X60309523Y-50971428D01*
X60357142Y-51161904D01*
X60404761Y-51257142D01*
X60452380Y-51304761D01*
X60547619Y-51352380D01*
X60642857Y-51352380D01*
X60738095Y-51304761D01*
X60785714Y-51257142D01*
X60833333Y-51161904D01*
X60880952Y-50971428D01*
X60880952Y-50733333D01*
X60833333Y-50542857D01*
X60785714Y-50447619D01*
X60738095Y-50400000D01*
X60642857Y-50352380D01*
X59928571Y-50447619D02*
X59880952Y-50400000D01*
X59785714Y-50352380D01*
X59547619Y-50352380D01*
X59452380Y-50400000D01*
X59404761Y-50447619D01*
X59357142Y-50542857D01*
X59357142Y-50638095D01*
X59404761Y-50780952D01*
X59976190Y-51352380D01*
X59357142Y-51352380D01*
X58404761Y-51352380D02*
X58976190Y-51352380D01*
X58690476Y-51352380D02*
X58690476Y-50352380D01*
X58785714Y-50495238D01*
X58880952Y-50590476D01*
X58976190Y-50638095D01*
X71452380Y-52335714D02*
X71452380Y-53145238D01*
X71500000Y-53240476D01*
X71547619Y-53288095D01*
X71642857Y-53335714D01*
X71785714Y-53335714D01*
X71880952Y-53288095D01*
X71452380Y-52954761D02*
X71547619Y-53002380D01*
X71738095Y-53002380D01*
X71833333Y-52954761D01*
X71880952Y-52907142D01*
X71928571Y-52811904D01*
X71928571Y-52526190D01*
X71880952Y-52430952D01*
X71833333Y-52383333D01*
X71738095Y-52335714D01*
X71547619Y-52335714D01*
X71452380Y-52383333D01*
X70976190Y-53002380D02*
X70976190Y-52335714D01*
X70976190Y-52002380D02*
X71023809Y-52050000D01*
X70976190Y-52097619D01*
X70928571Y-52050000D01*
X70976190Y-52002380D01*
X70976190Y-52097619D01*
X70642857Y-52335714D02*
X70261904Y-52335714D01*
X70500000Y-52002380D02*
X70500000Y-52859523D01*
X70452380Y-52954761D01*
X70357142Y-53002380D01*
X70261904Y-53002380D01*
X69928571Y-53002380D02*
X69928571Y-52002380D01*
X69500000Y-53002380D02*
X69500000Y-52478571D01*
X69547619Y-52383333D01*
X69642857Y-52335714D01*
X69785714Y-52335714D01*
X69880952Y-52383333D01*
X69928571Y-52430952D01*
X68595238Y-52335714D02*
X68595238Y-53002380D01*
X69023809Y-52335714D02*
X69023809Y-52859523D01*
X68976190Y-52954761D01*
X68880952Y-53002380D01*
X68738095Y-53002380D01*
X68642857Y-52954761D01*
X68595238Y-52907142D01*
X68119047Y-53002380D02*
X68119047Y-52002380D01*
X68119047Y-52383333D02*
X68023809Y-52335714D01*
X67833333Y-52335714D01*
X67738095Y-52383333D01*
X67690476Y-52430952D01*
X67642857Y-52526190D01*
X67642857Y-52811904D01*
X67690476Y-52907142D01*
X67738095Y-52954761D01*
X67833333Y-53002380D01*
X68023809Y-53002380D01*
X68119047Y-52954761D01*
X67214285Y-52907142D02*
X67166666Y-52954761D01*
X67214285Y-53002380D01*
X67261904Y-52954761D01*
X67214285Y-52907142D01*
X67214285Y-53002380D01*
X66309523Y-52954761D02*
X66404761Y-53002380D01*
X66595238Y-53002380D01*
X66690476Y-52954761D01*
X66738095Y-52907142D01*
X66785714Y-52811904D01*
X66785714Y-52526190D01*
X66738095Y-52430952D01*
X66690476Y-52383333D01*
X66595238Y-52335714D01*
X66404761Y-52335714D01*
X66309523Y-52383333D01*
X65738095Y-53002380D02*
X65833333Y-52954761D01*
X65880952Y-52907142D01*
X65928571Y-52811904D01*
X65928571Y-52526190D01*
X65880952Y-52430952D01*
X65833333Y-52383333D01*
X65738095Y-52335714D01*
X65595238Y-52335714D01*
X65500000Y-52383333D01*
X65452380Y-52430952D01*
X65404761Y-52526190D01*
X65404761Y-52811904D01*
X65452380Y-52907142D01*
X65500000Y-52954761D01*
X65595238Y-53002380D01*
X65738095Y-53002380D01*
X64976190Y-53002380D02*
X64976190Y-52335714D01*
X64976190Y-52430952D02*
X64928571Y-52383333D01*
X64833333Y-52335714D01*
X64690476Y-52335714D01*
X64595238Y-52383333D01*
X64547619Y-52478571D01*
X64547619Y-53002380D01*
X64547619Y-52478571D02*
X64500000Y-52383333D01*
X64404761Y-52335714D01*
X64261904Y-52335714D01*
X64166666Y-52383333D01*
X64119047Y-52478571D01*
X64119047Y-53002380D01*
X62928571Y-51954761D02*
X63785714Y-53240476D01*
X62595238Y-52335714D02*
X62595238Y-53335714D01*
X62595238Y-52383333D02*
X62500000Y-52335714D01*
X62309523Y-52335714D01*
X62214285Y-52383333D01*
X62166666Y-52430952D01*
X62119047Y-52526190D01*
X62119047Y-52811904D01*
X62166666Y-52907142D01*
X62214285Y-52954761D01*
X62309523Y-53002380D01*
X62500000Y-53002380D01*
X62595238Y-52954761D01*
X61547619Y-53002380D02*
X61642857Y-52954761D01*
X61690476Y-52907142D01*
X61738095Y-52811904D01*
X61738095Y-52526190D01*
X61690476Y-52430952D01*
X61642857Y-52383333D01*
X61547619Y-52335714D01*
X61404761Y-52335714D01*
X61309523Y-52383333D01*
X61261904Y-52430952D01*
X61214285Y-52526190D01*
X61214285Y-52811904D01*
X61261904Y-52907142D01*
X61309523Y-52954761D01*
X61404761Y-53002380D01*
X61547619Y-53002380D01*
X60642857Y-53002380D02*
X60738095Y-52954761D01*
X60785714Y-52859523D01*
X60785714Y-52002380D01*
X60357142Y-52335714D02*
X60119047Y-53002380D01*
X59880952Y-52335714D02*
X60119047Y-53002380D01*
X60214285Y-53240476D01*
X60261904Y-53288095D01*
X60357142Y-53335714D01*
X59500000Y-53002380D02*
X59500000Y-52002380D01*
X59404761Y-52621428D02*
X59119047Y-53002380D01*
X59119047Y-52335714D02*
X59500000Y-52716666D01*
X58690476Y-53002380D02*
X58690476Y-52335714D01*
X58690476Y-52002380D02*
X58738095Y-52050000D01*
X58690476Y-52097619D01*
X58642857Y-52050000D01*
X58690476Y-52002380D01*
X58690476Y-52097619D01*
X58357142Y-52335714D02*
X57976190Y-52335714D01*
X58214285Y-52002380D02*
X58214285Y-52859523D01*
X58166666Y-52954761D01*
X58071428Y-53002380D01*
X57976190Y-53002380D01*
M02*
