M48
; DRILL file {KiCad 5.1.9-73d0e3b20d~88~ubuntu20.10.1} date Mon Feb 22 22:34:38 2021
; FORMAT={-:-/ absolute / inch / decimal}
; #@! TF.CreationDate,2021-02-22T22:34:38+01:00
; #@! TF.GenerationSoftware,Kicad,Pcbnew,5.1.9-73d0e3b20d~88~ubuntu20.10.1
; #@! TF.FileFunction,Plated,1,2,PTH
FMAT,2
INCH
T1C0.1181
T2C0.1260
T3C0.1969
T4C0.2756
T5C0.3937
%
G90
G05
T1
X2.5394Y-3.1693
X2.5394Y-5.9055
T3
X3.2283Y-2.4803
T4
X2.1654Y-2.7559
X2.1654Y-3.937
X2.1654Y-5.1181
X2.1654Y-6.2992
X2.1654Y-7.4803
T5
X3.1102Y-3.3465
X3.1102Y-4.5276
X3.1102Y-5.7087
X3.1102Y-6.8898
X3.1102Y-8.0709
T2
G00X1.6963Y-1.6916
M15
G01X1.8066Y-1.6916
M16
G05
G00X1.6963Y-9.3294
M15
G01X1.8066Y-9.3294
M16
G05
G00X3.3113Y-1.6918
M15
G01X3.4215Y-1.6918
M16
G05
G00X3.3113Y-9.3296
M15
G01X3.4215Y-9.3296
M16
G05
T0
M30
