M48
; DRILL file {KiCad 5.1.10-88a1d61d58~88~ubuntu20.10.1} date Sat Jun 19 00:08:50 2021
; FORMAT={-:-/ absolute / inch / decimal}
; #@! TF.CreationDate,2021-06-19T00:08:50+02:00
; #@! TF.GenerationSoftware,Kicad,Pcbnew,5.1.10-88a1d61d58~88~ubuntu20.10.1
; #@! TF.FileFunction,Plated,1,2,PTH
FMAT,2
INCH
T1C0.0276
T2C0.0315
T3C0.0394
T4C0.0469
T5C0.0512
T6C0.1181
%
G90
G05
T1
X5.5748Y-2.4173
X5.7402Y-2.4173
T2
X4.9331Y-2.7276
X4.9331Y-3.0276
X4.9567Y-3.185
X4.9685Y-3.3661
X4.9685Y-3.6661
X4.9685Y-3.7843
X4.9685Y-3.8843
X4.9685Y-3.9866
X4.9685Y-4.0866
X4.9724Y-4.1929
X4.9724Y-4.4929
X5.0669Y-2.7276
X5.0669Y-3.0276
X5.1378Y-3.3661
X5.1378Y-3.4661
X5.1378Y-3.5657
X5.1378Y-3.6657
X5.1417Y-3.7866
X5.1417Y-4.0866
X5.1417Y-4.1921
X5.1417Y-4.4921
X5.1535Y-3.185
X5.2087Y-2.7276
X5.2087Y-3.0276
X5.3228Y-3.185
X5.3228Y-3.285
X5.3228Y-3.385
X5.3228Y-3.485
X5.3228Y-3.585
X5.3228Y-3.685
X5.3228Y-3.785
X5.3228Y-4.1496
X5.3228Y-4.2496
X5.3228Y-4.3496
X5.3228Y-4.4496
X5.326Y-4.6417
X5.3346Y-2.8701
X5.3819Y-4.0
X5.3858Y-3.0197
X5.4961Y-2.5866
X5.5787Y-4.0
X5.5827Y-3.0197
X5.6228Y-3.185
X5.6228Y-3.285
X5.6228Y-3.385
X5.6228Y-3.485
X5.6228Y-3.585
X5.6228Y-3.685
X5.6228Y-3.785
X5.6228Y-4.1496
X5.6228Y-4.2496
X5.6228Y-4.3496
X5.6228Y-4.4496
X5.626Y-4.6417
X5.6346Y-2.8701
X5.7835Y-4.4528
X5.7835Y-4.6496
X5.7961Y-2.5866
X5.8031Y-3.5386
X5.8031Y-3.8386
X5.8031Y-3.9717
X5.8031Y-4.2717
X5.811Y-3.2677
X5.8504Y-2.7244
X5.8504Y-3.0244
X5.9094Y-3.2677
X5.9409Y-3.5354
X5.9409Y-3.8354
X6.0118Y-2.7236
X6.0118Y-3.0236
X6.078Y-3.1929
X6.0787Y-3.3346
X6.1252Y-4.5512
X6.1252Y-4.6693
X6.1732Y-2.7236
X6.1732Y-3.0236
X6.3386Y-2.7236
X6.3386Y-3.0236
X6.378Y-3.1929
X6.3787Y-3.3346
X6.4252Y-4.5512
X6.4252Y-4.6693
X6.5315Y-4.0661
X6.5315Y-4.3661
X6.5354Y-2.7953
X6.5354Y-2.8953
X6.5354Y-2.9953
X6.5354Y-3.0953
X6.5354Y-3.2512
X6.5354Y-3.5512
X6.5354Y-3.6535
X6.5354Y-3.9535
X6.6732Y-3.252
X6.6732Y-3.552
X6.6772Y-3.6528
X6.6772Y-3.9528
X6.6772Y-4.0661
X6.6772Y-4.3661
X6.689Y-2.5
X6.689Y-2.6535
X6.689Y-4.5157
X6.689Y-4.6142
X6.8276Y-3.7638
X6.8276Y-4.0157
X6.8276Y-4.2677
X6.8354Y-2.7953
X6.8354Y-2.8953
X6.8354Y-2.9953
X6.8354Y-3.0953
X6.8425Y-3.2559
X6.8425Y-3.5559
X6.8858Y-2.6535
X6.9213Y-4.5669
X6.9276Y-3.7638
X6.9276Y-4.0157
X6.9276Y-4.2677
X6.9803Y-2.8071
X6.9803Y-3.1071
X6.989Y-2.5
X7.0Y-3.2559
X7.0Y-3.5559
X7.0197Y-4.5669
X7.0276Y-3.7638
X7.0276Y-4.0157
X7.0276Y-4.2677
T3
X6.4425Y-4.9094
X6.4425Y-5.0094
X6.5425Y-4.9094
X6.5425Y-5.0094
X6.6425Y-4.9094
X6.6425Y-5.0094
X6.7425Y-4.9094
X6.7425Y-5.0094
X6.8425Y-4.9094
X6.8425Y-5.0094
T4
X4.9843Y-2.5039
X4.9866Y-4.9724
X5.0843Y-2.5039
X5.0866Y-4.9724
X5.2559Y-2.5039
X5.2921Y-4.9764
X5.3559Y-2.5039
X5.3921Y-4.9764
X5.4921Y-4.9764
X5.6913Y-4.9724
X5.7913Y-4.9724
X5.9409Y-2.5
X5.9827Y-4.9724
X6.0409Y-2.5
X6.0827Y-4.9724
X6.1409Y-2.5
X6.2409Y-2.5
X6.4331Y-2.5
X6.5331Y-2.5
T5
X6.1772Y-3.5866
X6.1772Y-3.7835
X6.1772Y-4.1102
X6.1772Y-4.3071
X6.374Y-3.685
X6.374Y-4.2087
T6
X4.8071Y-2.3701
X4.811Y-5.1102
X7.1496Y-2.374
X7.1496Y-5.1102
T0
M30
